<?xml version="1.0"?>
<svg xmlns="http://www.w3.org/2000/svg" xmlns:xlink="http://www.w3.org/1999/xlink" xmlns:svgjs="http://svgjs.com/svgjs" version="1.1" width="512" height="512" x="0" y="0" viewBox="0 0 74 74" style="enable-background:new 0 0 512 512" xml:space="preserve"><g><path xmlns="http://www.w3.org/2000/svg" d="m56.082 72h-38.164a3.079 3.079 0 0 1 -3.05-2.805l-4.36-52.061a1 1 0 0 1 1-1.083h50.992a1 1 0 0 1 1 1.083l-4.36 52.061a3.079 3.079 0 0 1 -3.058 2.805zm-43.49-53.949 4.27 50.977a1.066 1.066 0 0 0 1.056.972h38.164a1.066 1.066 0 0 0 1.057-.972l4.27-50.977z" fill="#ffffff" data-original="#000000" style=""/><path xmlns="http://www.w3.org/2000/svg" d="m66.172 18.06h-58.344a2.17 2.17 0 0 1 -2.167-2.167v-5.041a2.169 2.169 0 0 1 2.167-2.167h58.344a2.169 2.169 0 0 1 2.167 2.167v5.042a2.17 2.17 0 0 1 -2.167 2.166zm-58.344-7.375a.167.167 0 0 0 -.167.167v5.042a.167.167 0 0 0 .167.167h58.344a.167.167 0 0 0 .167-.167v-5.042a.167.167 0 0 0 -.167-.167z" fill="#ffffff" data-original="#000000" style=""/><path xmlns="http://www.w3.org/2000/svg" d="m45.812 10.685h-17.624a1 1 0 0 1 -1-1v-5.067a2.621 2.621 0 0 1 2.618-2.618h14.388a2.621 2.621 0 0 1 2.618 2.618v5.067a1 1 0 0 1 -1 1zm-16.624-2h15.624v-4.067a.618.618 0 0 0 -.618-.618h-14.388a.618.618 0 0 0 -.618.618z" fill="#ffffff" data-original="#000000" style=""/><path xmlns="http://www.w3.org/2000/svg" d="m47.462 56.03c-.029 0-.059 0-.088 0a1 1 0 0 1 -.909-1.083l2.289-26.131a1 1 0 1 1 1.992.175l-2.288 26.127a1 1 0 0 1 -.996.912z" fill="#ffffff" data-original="#000000" style=""/><path xmlns="http://www.w3.org/2000/svg" d="m37 56.03a1 1 0 0 1 -1-1v-26.13a1 1 0 1 1 2 0v26.13a1 1 0 0 1 -1 1z" fill="#ffffff" data-original="#000000" style=""/><path xmlns="http://www.w3.org/2000/svg" d="m26.538 56.03a1 1 0 0 1 -1-.913l-2.284-26.13a1 1 0 1 1 1.992-.175l2.289 26.131a1 1 0 0 1 -.909 1.083c-.026.003-.059.004-.088.004z" fill="#ffffff" data-original="#000000" style=""/></g></svg>
